<svg xmlns="http://www.w3.org/2000/svg" viewBox="0 0 512 512">
  <defs>
    <linearGradient id="bg" x1="0" x2="1" y1="0" y2="1">
      <stop offset="0%" stop-color="#0f2d6d" />
      <stop offset="55%" stop-color="#2284ff" />
      <stop offset="100%" stop-color="#25b872" />
    </linearGradient>
    <linearGradient id="card" x1="0" x2="1" y1="0" y2="1">
      <stop offset="0%" stop-color="#ffffff" />
      <stop offset="100%" stop-color="#dff4ff" />
    </linearGradient>
  </defs>
  <rect width="512" height="512" rx="136" fill="url(#bg)" />
  <circle cx="382" cy="132" r="54" fill="#ffffff" fill-opacity="0.12" />
  <circle cx="126" cy="404" r="46" fill="#ffffff" fill-opacity="0.08" />
  <path
    d="M136 152c59 0 111 15 160 46 6 4 10 10 10 17v148c0 8-8 14-16 11-48-22-95-33-146-33-15 0-28 1-39 3-10 2-19-6-19-17V171c0-11 8-19 19-19h31Z"
    fill="url(#card)"
  />
  <path
    d="M318 209c30-16 58-26 88-31 10-2 20 6 20 17v149c0 9-6 16-15 17-32 6-61 16-89 30-8 4-18-2-18-11V225c0-7 5-13 14-16Z"
    fill="#cfe5ff"
  />
  <path
    d="M162 225c41 0 77 9 111 27v56c-34-17-70-25-111-25v-58Zm176 73c22-10 41-16 59-18v57c-19 4-39 11-59 20v-59Z"
    fill="#2284ff"
  />
  <path
    d="M162 315c38 0 72 8 105 25"
    fill="none"
    stroke="#25b872"
    stroke-linecap="round"
    stroke-width="18"
  />
</svg>
