<svg xmlns="http://www.w3.org/2000/svg" viewBox="0 0 512 512">
  <defs>
    <linearGradient id="bg" x1="0%" x2="100%" y1="0%" y2="100%">
      <stop offset="0%" stop-color="#f3d6a0"/>
      <stop offset="50%" stop-color="#d86a39"/>
      <stop offset="100%" stop-color="#2d7d8f"/>
    </linearGradient>
  </defs>
  <rect width="512" height="512" rx="118" fill="url(#bg)"/>
  <circle cx="256" cy="256" r="154" fill="none" stroke="#fff7ef" stroke-width="26" opacity="0.92"/>
  <path d="M126 256h260M256 108c34 34 58 94 58 148s-24 114-58 148c-34-34-58-94-58-148s24-114 58-148Z" fill="none" stroke="#fff7ef" stroke-width="22" stroke-linecap="round"/>
  <path d="M106 192c50-25 104-38 150-38s100 13 150 38M106 320c50 25 104 38 150 38s100-13 150-38" fill="none" stroke="#fff7ef" stroke-width="18" stroke-linecap="round"/>
  <path d="M348 136 408 76" stroke="#fff7ef" stroke-width="22" stroke-linecap="round"/>
</svg>
