<svg xmlns="http://www.w3.org/2000/svg" viewBox="0 0 192 192">
  <defs>
    <linearGradient id="bg" x1="0%" x2="100%" y1="0%" y2="100%">
      <stop offset="0%" stop-color="#f3d6a0"/>
      <stop offset="50%" stop-color="#d86a39"/>
      <stop offset="100%" stop-color="#2d7d8f"/>
    </linearGradient>
  </defs>
  <rect width="192" height="192" rx="44" fill="url(#bg)"/>
  <circle cx="96" cy="96" r="58" fill="none" stroke="#fff7ef" stroke-width="10" opacity="0.92"/>
  <path d="M48 96h96M96 38c13 13 22 35 22 58s-9 45-22 58c-13-13-22-35-22-58s9-45 22-58Z" fill="none" stroke="#fff7ef" stroke-width="8" stroke-linecap="round"/>
  <path d="M40 72c18-9 39-14 56-14s38 5 56 14M40 120c18 9 39 14 56 14s38-5 56-14" fill="none" stroke="#fff7ef" stroke-width="7" stroke-linecap="round"/>
  <path d="M130 50 152 28" stroke="#fff7ef" stroke-width="8" stroke-linecap="round"/>
</svg>
